<svg width="36" height="36" viewBox="0 0 36 36" fill="none" xmlns="http://www.w3.org/2000/svg">
<path d="M18 36C27.9411 36 36 27.9411 36 18C36 8.05887 27.9411 0 18 0C8.05887 0 0 8.05887 0 18C0 27.9411 8.05887 36 18 36Z" fill="#4F9801" fill-opacity="0.8"/>
<path d="M16.2005 24.3027C15.9636 24.304 15.7288 24.2586 15.5095 24.1691C15.2902 24.0795 15.0907 23.9475 14.9225 23.7807L9.52253 18.3807C9.3547 18.2128 9.22157 18.0136 9.13074 17.7943C9.03991 17.575 8.99316 17.34 8.99316 17.1027C8.99316 16.6233 9.18358 16.1636 9.52253 15.8247C9.86148 15.4857 10.3212 15.2953 10.8005 15.2953C11.2799 15.2953 11.7396 15.4857 12.0785 15.8247L16.2005 19.9647L23.9225 12.2247C24.2615 11.8857 24.7212 11.6953 25.2005 11.6953C25.6799 11.6953 26.1396 11.8857 26.4785 12.2247C26.8175 12.5636 27.0079 13.0233 27.0079 13.5027C27.0079 13.982 26.8175 14.4417 26.4785 14.7807L17.4785 23.7807C17.3103 23.9475 17.1109 24.0795 16.8916 24.1691C16.6723 24.2586 16.4374 24.304 16.2005 24.3027Z" fill="white"/>
</svg>
