<svg width="28" height="29" viewBox="0 0 28 29" fill="none" xmlns="http://www.w3.org/2000/svg">
<path d="M23.3333 14.3017C23.0239 14.3017 22.7272 14.4246 22.5084 14.6434C22.2896 14.8622 22.1667 15.1589 22.1667 15.4683V21.9667C22.1667 22.1523 22.0929 22.3304 21.9616 22.4616C21.8304 22.5929 21.6523 22.6667 21.4667 22.6667H6.53333C6.34768 22.6667 6.16963 22.5929 6.03836 22.4616C5.90708 22.3304 5.83333 22.1523 5.83333 21.9667V7.03333C5.83333 6.84768 5.90708 6.66963 6.03836 6.53836C6.16963 6.40708 6.34768 6.33333 6.53333 6.33333H17.6983C18.0078 6.33333 18.3045 6.21042 18.5233 5.99162C18.7421 5.77283 18.865 5.47609 18.865 5.16667C18.865 4.85725 18.7421 4.5605 18.5233 4.34171C18.3045 4.12292 18.0078 4 17.6983 4H6.53333C5.72979 4.00307 4.96003 4.32364 4.39184 4.89184C3.82364 5.46003 3.50307 6.22979 3.5 7.03333V21.9667C3.50307 22.7702 3.82364 23.54 4.39184 24.1082C4.96003 24.6764 5.72979 24.9969 6.53333 25H21.4667C22.2702 24.9969 23.04 24.6764 23.6082 24.1082C24.1764 23.54 24.4969 22.7702 24.5 21.9667V15.4683C24.5 15.1589 24.3771 14.8622 24.1583 14.6434C23.9395 14.4246 23.6428 14.3017 23.3333 14.3017Z" fill="#4F9801"/>
<path d="M12.5064 13.3317C12.2874 13.1348 12.0022 13.028 11.7078 13.0327C11.4134 13.0373 11.1316 13.1532 10.919 13.3569C10.7064 13.5606 10.5787 13.8372 10.5616 14.1311C10.5444 14.4251 10.639 14.7146 10.8264 14.9417L13.4164 17.6601C13.5248 17.7738 13.6551 17.8645 13.7995 17.9266C13.9438 17.9888 14.0992 18.0211 14.2564 18.0217C14.4127 18.0226 14.5676 17.9921 14.7119 17.932C14.8562 17.8719 14.9869 17.7834 15.0964 17.6717L23.0064 9.50507C23.1136 9.39476 23.1981 9.2644 23.255 9.12145C23.3118 8.97849 23.34 8.82574 23.3378 8.6719C23.3356 8.51807 23.3032 8.36616 23.2423 8.22487C23.1815 8.08357 23.0934 7.95565 22.983 7.8484C22.8727 7.74116 22.7424 7.65669 22.5994 7.59982C22.4565 7.54295 22.3037 7.5148 22.1499 7.51696C21.996 7.51913 21.8441 7.55157 21.7028 7.61245C21.5615 7.67332 21.4336 7.76143 21.3264 7.87174L14.268 15.1751L12.5064 13.3317Z" fill="#4F9801"/>
</svg>
