<svg width="46" height="46" viewBox="0 0 46 46" fill="none" xmlns="http://www.w3.org/2000/svg">
<g clip-path="url(#clip0_44_3666)">
<rect x="14.457" y="13.1406" width="18.4" height="17.0857" fill="white"/>
<path d="M23 5C13.0749 5 5 13.0749 5 23C5 32.9251 13.0749 41 23 41C32.9251 41 41 32.9251 41 23C41 13.0749 32.9251 5 23 5ZM29.5172 27.5597C29.6512 27.687 29.7583 27.8398 29.8323 28.0092C29.9063 28.1785 29.9457 28.361 29.948 28.5458C29.9504 28.7306 29.9157 28.914 29.8461 29.0852C29.7765 29.2564 29.6733 29.4119 29.5426 29.5426C29.4119 29.6733 29.2564 29.7765 29.0852 29.8461C28.914 29.9157 28.7306 29.9504 28.5458 29.948C28.361 29.9457 28.1785 29.9063 28.0092 29.8323C27.8398 29.7583 27.687 29.6512 27.5597 29.5172L23 24.9584L18.4403 29.5172C18.1785 29.7659 17.8299 29.9025 17.4689 29.8979C17.1078 29.8933 16.7629 29.7478 16.5075 29.4925C16.2522 29.2371 16.1067 28.8922 16.1021 28.5311C16.0975 28.1701 16.2341 27.8215 16.4828 27.5597L21.0416 23L16.4828 18.4403C16.2341 18.1785 16.0975 17.8299 16.1021 17.4689C16.1067 17.1078 16.2522 16.7629 16.5075 16.5075C16.7629 16.2522 17.1078 16.1067 17.4689 16.1021C17.8299 16.0975 18.1785 16.2341 18.4403 16.4828L23 21.0416L27.5597 16.4828C27.8215 16.2341 28.1701 16.0975 28.5311 16.1021C28.8922 16.1067 29.2371 16.2522 29.4925 16.5075C29.7478 16.7629 29.8933 17.1078 29.8979 17.4689C29.9025 17.8299 29.7659 18.1785 29.5172 18.4403L24.9584 23L29.5172 27.5597Z" fill="#D52121" fill-opacity="0.8"/>
</g>
<defs>
<clipPath id="clip0_44_3666">
<rect width="46" height="46" rx="10" fill="white"/>
</clipPath>
</defs>
</svg>
