<svg width="249" height="54" viewBox="0 0 249 54" fill="none" xmlns="http://www.w3.org/2000/svg">
<path d="M1 9.125C1.00007 12.9171 1.0002 40.2708 1 45.4167C0.999797 50.5625 5.42913 53 9.58143 53H42.7999C46.9522 53 50.274 51.6458 50.274 45.4167V9.125C50.274 5.0625 47.5056 0.999802 42.5231 1C37.5405 1.0002 14.5644 1.00026 9.58143 1C4.59846 0.999736 0.999928 5.33287 1 9.125Z" stroke="#0E0E0E" stroke-width="0.5"/>
<path d="M19.4426 10.6281L5.15527 24.7982L24.7342 45.6669C24.7342 45.6669 25.9363 46.6267 26.8509 46.955C28.402 47.5119 29.5121 47.4531 31.0842 46.955C32.8336 46.4009 33.6718 45.5448 34.7883 44.121C35.4339 43.2977 35.787 42.7889 36.1112 41.8023C36.615 40.2691 36.558 39.23 36.1112 37.6801C35.799 36.5971 34.7883 35.1037 34.7883 35.1037L26.8509 26.344C26.8509 26.344 25.9147 24.525 26.5863 23.51C27.1142 22.7121 27.7412 22.3766 28.7029 22.2218C29.1107 22.1562 29.3533 22.1571 29.7613 22.2218C31.1333 22.4395 32.4071 24.5406 32.4071 24.5406L35.582 21.4489C35.582 21.4489 34.142 19.1527 32.6716 18.3573C31.8148 17.8937 31.2573 17.7413 30.2904 17.5844C29.2712 17.419 27.6446 17.5844 27.6446 17.5844C27.6446 17.5844 26.6449 17.8215 26.0571 18.0996C24.8068 18.6912 24.234 19.3273 23.4113 20.4184C22.7276 21.3251 22.3835 21.9072 22.0884 22.9947C21.719 24.3566 21.7124 25.2415 22.0884 26.6017C22.1734 26.9089 22.353 27.3746 22.353 27.3746L31.6133 38.453C31.6133 38.453 31.7459 39.4091 31.6133 39.9988C31.4048 40.926 31.1788 41.6693 30.2904 42.0599C29.6312 42.3498 28.4384 42.0599 28.4384 42.0599L11.7698 25.0558L21.8238 14.2351C21.8238 14.2351 24.1082 12.6592 25.7926 12.174C28.1705 11.4889 29.7717 11.4659 32.1425 12.174C33.1154 12.4645 33.6431 12.7079 34.5237 13.2045C35.9204 13.9922 36.6241 14.6083 37.6987 15.7809C38.8432 17.0298 39.2974 17.8958 40.0789 19.386L40.0799 19.3878C40.6908 20.5527 41.0902 21.2074 41.4028 22.4795C41.8597 24.3386 41.743 25.4918 41.4028 27.3746C41.1593 28.7224 40.9903 29.5084 40.3445 30.7239C39.5359 32.2456 37.4341 34.0732 37.4341 34.0732C37.4341 34.0732 37.9548 35.4751 38.2278 36.3919C38.6118 37.681 39.0216 39.7412 39.0216 39.7412C39.0216 39.7412 43.211 35.6173 44.5778 32.2697C45.1336 30.9084 45.3554 30.102 45.6361 28.6628C46.2143 25.6973 46.34 23.8732 45.6361 20.9336C45.2352 19.2593 44.8225 18.3568 44.0486 16.8114C43.1941 15.1051 42.6767 14.1262 41.4028 12.6892C40.1578 11.2849 39.2878 10.6209 37.6987 9.5976C36.157 8.60482 35.2234 8.09212 33.4654 7.5365C32.655 7.28037 32.1888 7.16012 31.3487 7.02122C29.5151 6.71802 28.4199 6.71802 26.5863 7.02122C25.7463 7.16012 25.2785 7.27577 24.4697 7.5365C22.4498 8.18755 19.4426 10.6281 19.4426 10.6281Z" fill="url(#paint0_linear_169_23)"/>
<path d="M79.6085 23.4641C79.6085 25.6835 78.6973 27.4893 76.875 28.8815C75.0624 30.2636 72.5968 30.9546 69.4783 30.9546C67.6755 30.9546 66.1016 30.7932 64.7568 30.4704C63.4217 30.1375 62.1694 29.7188 61 29.2144V23.8121H61.6139C62.7736 24.7705 64.0697 25.5069 65.5023 26.0214C66.9446 26.5359 68.3284 26.7932 69.6538 26.7932C69.9948 26.7932 70.4431 26.7629 70.9986 26.7024C71.5541 26.6419 72.0072 26.541 72.3581 26.3997C72.7868 26.2182 73.1377 25.9912 73.4105 25.7188C73.6932 25.4464 73.8345 25.0429 73.8345 24.5082C73.8345 24.0139 73.6298 23.5902 73.2205 23.2371C72.821 22.8739 72.2314 22.5965 71.4518 22.4048C70.6332 22.203 69.7658 22.0164 68.8498 21.8449C67.9435 21.6633 67.0908 21.4363 66.2917 21.1639C64.4596 20.5486 63.1391 19.7163 62.3302 18.6671C61.5311 17.6078 61.1316 16.2963 61.1316 14.7327C61.1316 12.6343 62.0379 10.9243 63.8505 9.60277C65.6728 8.27112 68.0117 7.6053 70.867 7.6053C72.2996 7.6053 73.7126 7.75158 75.1062 8.04414C76.5095 8.32661 77.7228 8.68474 78.7461 9.11854V14.309H78.1467C77.2697 13.5826 76.1928 12.9773 74.9162 12.4931C73.6493 11.9987 72.3532 11.7516 71.0278 11.7516C70.5601 11.7516 70.0923 11.7869 69.6245 11.8575C69.1665 11.918 68.7231 12.0391 68.2943 12.2207C67.9142 12.372 67.5878 12.604 67.3149 12.9168C67.042 13.2194 66.9056 13.5675 66.9056 13.9609C66.9056 14.5561 67.1249 15.0151 67.5634 15.338C68.0019 15.6507 68.8303 15.9382 70.0484 16.2005C70.8475 16.372 71.6125 16.5385 72.3434 16.6999C73.0841 16.8613 73.8783 17.0832 74.7261 17.3657C76.3926 17.9306 77.6205 18.7024 78.4098 19.681C79.209 20.6494 79.6085 21.9105 79.6085 23.4641Z" fill="#FF0066"/>
<path d="M99.2256 18.5006V30.546H93.934V22.0567C93.934 21.2295 93.9145 20.5284 93.8755 19.9533C93.8365 19.3682 93.7293 18.8941 93.5539 18.5309C93.3785 18.1677 93.1105 17.9054 92.7499 17.744C92.3991 17.5725 91.9021 17.4868 91.2589 17.4868C90.7424 17.4868 90.2405 17.5977 89.7533 17.8197C89.266 18.0315 88.8275 18.2585 88.4377 18.5006V30.546H83.1753V13.5523H88.4377V15.4288C89.344 14.6923 90.2113 14.1173 91.0397 13.7037C91.868 13.29 92.784 13.0832 93.7878 13.0832C94.8695 13.0832 95.8246 13.3354 96.6529 13.8398C97.4812 14.3342 98.1293 15.0656 98.5971 16.034C99.6496 15.116 100.673 14.3947 101.667 13.8701C102.661 13.3455 103.635 13.0832 104.59 13.0832C106.364 13.0832 107.709 13.633 108.625 14.7327C109.551 15.8323 110.014 17.4161 110.014 19.4842V30.546H104.722V22.0567C104.722 21.2194 104.702 20.5132 104.663 19.9382C104.634 19.3632 104.532 18.8941 104.356 18.5309C104.191 18.1677 103.928 17.9054 103.567 17.744C103.207 17.5725 102.7 17.4868 102.047 17.4868C101.608 17.4868 101.18 17.5675 100.761 17.7289C100.341 17.8802 99.8298 18.1375 99.2256 18.5006Z" fill="#FF0066"/>
<path d="M124.807 26.1122V22.5712C124.095 22.6318 123.326 22.7175 122.497 22.8285C121.669 22.9294 121.04 23.0504 120.612 23.1917C120.085 23.3632 119.681 23.6154 119.398 23.9483C119.125 24.2711 118.989 24.6999 118.989 25.2346C118.989 25.5876 119.018 25.8752 119.077 26.0971C119.135 26.319 119.281 26.5309 119.515 26.7327C119.739 26.9344 120.007 27.0858 120.319 27.1866C120.631 27.2774 121.118 27.3228 121.781 27.3228C122.307 27.3228 122.838 27.2119 123.374 26.9899C123.92 26.768 124.398 26.4754 124.807 26.1122ZM124.807 28.7453C124.524 28.9672 124.173 29.2346 123.754 29.5473C123.335 29.86 122.941 30.1072 122.57 30.2888C122.054 30.5309 121.518 30.7074 120.962 30.8184C120.407 30.9395 119.798 31 119.135 31C117.576 31 116.27 30.5006 115.218 29.5019C114.165 28.5032 113.639 27.227 113.639 25.6734C113.639 24.4325 113.907 23.4187 114.443 22.6318C114.979 21.8449 115.739 21.2245 116.723 20.7705C117.698 20.3165 118.906 19.9937 120.348 19.802C121.791 19.6103 123.287 19.4691 124.836 19.3783V19.2875C124.836 18.3493 124.466 17.7037 123.725 17.3506C122.984 16.9874 121.893 16.8058 120.451 16.8058C119.583 16.8058 118.658 16.9672 117.673 17.29C116.689 17.6028 115.983 17.8449 115.554 18.0164H115.071V13.9155C115.627 13.7642 116.528 13.5876 117.776 13.3859C119.033 13.174 120.29 13.0681 121.547 13.0681C124.539 13.0681 126.697 13.5473 128.023 14.5057C129.358 15.454 130.025 16.947 130.025 18.9849V30.546H124.807V28.7453Z" fill="#FF0066"/>
<path d="M146.763 18.7427H146.295C146.071 18.662 145.71 18.6015 145.213 18.5612C144.716 18.5208 144.302 18.5006 143.971 18.5006C143.22 18.5006 142.558 18.5511 141.983 18.652C141.408 18.7528 140.789 18.9243 140.126 19.1665V30.546H134.864V13.5523H140.126V16.0492C141.286 15.0202 142.295 14.3392 143.152 14.0063C144.01 13.6633 144.799 13.4918 145.52 13.4918C145.705 13.4918 145.915 13.4968 146.149 13.5069C146.383 13.517 146.587 13.5322 146.763 13.5523V18.7427Z" fill="#FF0066"/>
<path d="M160.24 30.3947C159.675 30.546 159.076 30.662 158.442 30.7428C157.809 30.8335 157.034 30.8789 156.118 30.8789C154.072 30.8789 152.547 30.4502 151.543 29.5927C150.549 28.7352 150.052 27.2673 150.052 25.1892V17.2446H147.888V13.5523H150.052V8.69483H155.314V13.5523H160.24V17.2446H155.314V23.2673C155.314 23.8625 155.319 24.3821 155.329 24.826C155.339 25.2699 155.417 25.6683 155.563 26.0214C155.699 26.3745 155.938 26.657 156.279 26.8689C156.63 27.0706 157.137 27.1715 157.799 27.1715C158.072 27.1715 158.428 27.111 158.866 26.9899C159.315 26.8689 159.627 26.7579 159.802 26.657H160.24V30.3947Z" fill="#FF0066"/>
<path d="M184.258 19.3026C184.258 21.401 183.795 23.2825 182.869 24.947C181.943 26.6015 180.774 27.8726 179.361 28.7604C178.298 29.4262 177.134 29.8903 175.867 30.1526C174.6 30.4149 173.099 30.546 171.365 30.546H163.69V8.01387H171.584C173.358 8.01387 174.888 8.17024 176.174 8.48298C177.46 8.78562 178.542 9.21942 179.419 9.78436C180.92 10.7327 182.099 12.0139 182.957 13.628C183.824 15.232 184.258 17.1236 184.258 19.3026ZM178.454 19.2573C178.454 17.7743 178.191 16.5082 177.665 15.459C177.148 14.3997 176.325 13.5725 175.195 12.9773C174.62 12.6847 174.03 12.488 173.426 12.3871C172.831 12.2762 171.93 12.2207 170.721 12.2207H169.304V26.3241H170.721C172.057 26.3241 173.036 26.2636 173.66 26.1425C174.283 26.0113 174.892 25.7793 175.487 25.4464C176.51 24.8411 177.261 24.034 177.738 23.0252C178.216 22.0063 178.454 20.7503 178.454 19.2573Z" fill="#FFBA03"/>
<path d="M200.147 18.7427H199.679C199.455 18.662 199.095 18.6015 198.598 18.5612C198.101 18.5208 197.687 18.5006 197.355 18.5006C196.605 18.5006 195.942 18.5511 195.367 18.652C194.792 18.7528 194.173 18.9243 193.511 19.1665V30.546H188.248V13.5523H193.511V16.0492C194.67 15.0202 195.679 14.3392 196.537 14.0063C197.394 13.6633 198.184 13.4918 198.905 13.4918C199.09 13.4918 199.299 13.4968 199.533 13.5069C199.767 13.517 199.972 13.5322 200.147 13.5523V18.7427Z" fill="#FFBA03"/>
<path d="M208.392 30.546H203.129V13.5523H208.392V30.546ZM208.538 11.1311H202.983V7H208.538V11.1311Z" fill="#FFBA03"/>
<path d="M229.894 13.5523L223.565 30.546H217.601L211.315 13.5523H216.885L220.685 25.2346L224.442 13.5523H229.894Z" fill="#FFBA03"/>
<path d="M249 23.0555H236.955C237.033 24.3871 237.52 25.4061 238.417 26.1122C239.323 26.8184 240.653 27.1715 242.407 27.1715C243.518 27.1715 244.595 26.9647 245.638 26.5511C246.681 26.1375 247.504 25.6936 248.108 25.2194H248.693V29.5927C247.504 30.087 246.383 30.4451 245.331 30.6671C244.278 30.889 243.114 31 241.837 31C238.543 31 236.019 30.2333 234.265 28.6999C232.511 27.1665 231.634 24.9823 231.634 22.1475C231.634 19.343 232.462 17.1236 234.119 15.4893C235.785 13.8449 238.066 13.0227 240.96 13.0227C243.63 13.0227 245.638 13.7238 246.983 15.1261C248.328 16.5183 249 18.5259 249 21.1488V23.0555ZM243.767 19.8625C243.738 18.7226 243.465 17.8651 242.948 17.29C242.432 16.715 241.628 16.4275 240.536 16.4275C239.523 16.4275 238.69 16.6999 238.037 17.2446C237.384 17.7894 237.018 18.662 236.94 19.8625H243.767Z" fill="#FFBA03"/>
<path d="M66.9801 44.9076H65.9405V38.2392H62.0396V44.9076H61V37.3454H66.9801V44.9076Z" fill="#333333"/>
<path d="M74.1677 42.0025C74.1677 42.463 74.0994 42.8845 73.9629 43.2671C73.8264 43.6464 73.6339 43.968 73.3854 44.2321C73.1544 44.4826 72.8814 44.6773 72.5664 44.8162C72.2548 44.9516 71.9241 45.0193 71.5741 45.0193C71.2695 45.0193 70.993 44.9871 70.7445 44.9228C70.4995 44.8585 70.2492 44.7586 69.9937 44.6232V47H69.0067V39.2346H69.9937V39.8288C70.2562 39.6155 70.5503 39.4378 70.8758 39.2956C71.2048 39.15 71.5548 39.0772 71.9258 39.0772C72.6329 39.0772 73.1824 39.3362 73.5744 39.8542C73.9699 40.3689 74.1677 41.085 74.1677 42.0025ZM73.1491 42.0279C73.1491 41.344 73.0284 40.8327 72.7869 40.4942C72.5454 40.1556 72.1743 39.9863 71.6738 39.9863C71.3903 39.9863 71.105 40.0455 70.818 40.164C70.531 40.2825 70.2562 40.4383 69.9937 40.6313V43.8461C70.2737 43.968 70.5135 44.051 70.713 44.095C70.916 44.139 71.1453 44.161 71.4008 44.161C71.9503 44.161 72.3791 43.9815 72.6871 43.6227C72.9951 43.2638 73.1491 42.7322 73.1491 42.0279Z" fill="#333333"/>
<path d="M80.7043 42.0736C80.7043 42.998 80.4593 43.7276 79.9692 44.2626C79.4792 44.7975 78.8229 45.065 78.0004 45.065C77.1709 45.065 76.5111 44.7975 76.021 44.2626C75.5345 43.7276 75.2913 42.998 75.2913 42.0736C75.2913 41.1493 75.5345 40.4197 76.021 39.8847C76.5111 39.3464 77.1709 39.0772 78.0004 39.0772C78.8229 39.0772 79.4792 39.3464 79.9692 39.8847C80.4593 40.4197 80.7043 41.1493 80.7043 42.0736ZM79.6857 42.0736C79.6857 41.3389 79.537 40.7938 79.2395 40.4383C78.9419 40.0794 78.5289 39.8999 78.0004 39.8999C77.4649 39.8999 77.0483 40.0794 76.7508 40.4383C76.4568 40.7938 76.3098 41.3389 76.3098 42.0736C76.3098 42.7847 76.4586 43.3247 76.7561 43.6938C77.0536 44.0594 77.4684 44.2423 78.0004 44.2423C78.5254 44.2423 78.9367 44.0611 79.2342 43.6988C79.5352 43.3332 79.6857 42.7914 79.6857 42.0736Z" fill="#333333"/>
<path d="M89.7243 41.9213C89.7243 42.4258 89.6578 42.8727 89.5247 43.2621C89.3917 43.648 89.215 43.9663 88.9945 44.2169C88.7775 44.4674 88.5272 44.6587 88.2437 44.7908C87.9602 44.9228 87.6627 44.9888 87.3511 44.9888C87.1166 44.9888 86.9119 44.9499 86.7369 44.872C86.5653 44.7941 86.4113 44.723 86.2748 44.6587V47H85.2983V44.6587C85.0848 44.7603 84.908 44.8415 84.768 44.9025C84.6315 44.96 84.4162 44.9888 84.1222 44.9888C83.4467 44.9888 82.8989 44.7332 82.4789 44.2219C82.0589 43.7107 81.8488 42.9997 81.8488 42.0889C81.8488 41.6115 81.9171 41.1866 82.0536 40.8141C82.1901 40.4383 82.3686 40.1234 82.5891 39.8695C82.8026 39.6223 83.0529 39.4344 83.3399 39.3057C83.6304 39.1737 83.9192 39.1077 84.2062 39.1077C84.4162 39.1077 84.607 39.1398 84.7785 39.2042C84.9535 39.2651 85.1268 39.3464 85.2983 39.4479V37.0051H86.2748V39.4479C86.4358 39.3565 86.6248 39.277 86.8419 39.2092C87.0589 39.1415 87.2776 39.1077 87.4981 39.1077C88.1912 39.1077 88.7355 39.3616 89.131 39.8695C89.5265 40.374 89.7243 41.0579 89.7243 41.9213ZM88.711 42.0279C88.711 41.3812 88.592 40.87 88.3539 40.4942C88.1159 40.1183 87.7589 39.9304 87.2829 39.9304C87.0904 39.9304 86.9294 39.9457 86.7999 39.9761C86.6703 40.0066 86.4953 40.0642 86.2748 40.1488V43.9325C86.4393 44.0069 86.5758 44.0662 86.6844 44.1102C86.7964 44.1508 86.9539 44.1712 87.1569 44.1712C87.6504 44.1712 88.0319 43.9883 88.3014 43.6227C88.5744 43.2536 88.711 42.722 88.711 42.0279ZM85.2983 43.9325V40.1488C85.1618 40.0879 85.0235 40.0371 84.8835 39.9964C84.7435 39.9524 84.5877 39.9304 84.4162 39.9304C83.9437 39.9304 83.5657 40.1048 83.2822 40.4535C83.0022 40.8023 82.8621 41.3321 82.8621 42.0432C82.8621 42.7034 82.9864 43.2231 83.2349 43.6023C83.4869 43.9815 83.8492 44.1712 84.3217 44.1712C84.5072 44.1712 84.6787 44.1475 84.8363 44.1001C84.9973 44.0493 85.1513 43.9934 85.2983 43.9325Z" fill="#333333"/>
<path d="M96.1873 42.1701H91.8664C91.8664 42.5189 91.9206 42.8236 92.0291 43.0843C92.1376 43.3416 92.2864 43.5532 92.4754 43.7191C92.6574 43.8817 92.8727 44.0036 93.1212 44.0848C93.3732 44.1661 93.6497 44.2067 93.9507 44.2067C94.3498 44.2067 94.7505 44.1305 95.153 43.9782C95.5591 43.8224 95.8478 43.6701 96.0193 43.5211H96.0718V44.5622C95.7393 44.6976 95.3998 44.8111 95.0533 44.9025C94.7068 44.9939 94.3428 45.0396 93.9612 45.0396C92.9882 45.0396 92.2286 44.7857 91.6826 44.2778C91.1366 43.7665 90.8636 43.042 90.8636 42.1041C90.8636 41.1764 91.1243 40.44 91.6459 39.8949C92.1709 39.3498 92.8604 39.0772 93.7145 39.0772C94.5055 39.0772 95.1145 39.3007 95.5416 39.7476C95.9721 40.1945 96.1873 40.8294 96.1873 41.6521V42.1701ZM95.2266 41.4388C95.223 40.9377 95.0918 40.55 94.8328 40.2758C94.5773 40.0015 94.187 39.8644 93.662 39.8644C93.1334 39.8644 92.7117 40.0151 92.3967 40.3164C92.0851 40.6177 91.9084 40.9919 91.8664 41.4388H95.2266Z" fill="#333333"/>
<path d="M102.073 44.5521C101.67 44.7349 101.324 44.8602 101.033 44.9279C100.746 44.999 100.459 45.0345 100.172 45.0345C99.7453 45.0345 99.3533 44.9753 98.9962 44.8568C98.6392 44.7349 98.333 44.5521 98.0774 44.3083C97.8219 44.0645 97.6224 43.7564 97.4789 43.384C97.3389 43.0115 97.2689 42.5764 97.2689 42.0787C97.2689 41.1747 97.5279 40.4535 98.0459 39.9152C98.564 39.3735 99.2728 39.1026 100.172 39.1026C100.512 39.1026 100.844 39.1483 101.17 39.2397C101.499 39.3311 101.8 39.4429 102.073 39.5749V40.6364H102.015C101.69 40.396 101.368 40.2182 101.049 40.1031C100.734 39.988 100.428 39.9304 100.13 39.9304C99.5458 39.9304 99.0925 40.12 98.7705 40.4992C98.452 40.8784 98.2927 41.4049 98.2927 42.0787C98.2927 42.7525 98.452 43.2756 98.7705 43.648C99.089 44.0205 99.5423 44.2067 100.13 44.2067C100.337 44.2067 100.542 44.1813 100.745 44.1305C100.951 44.0797 101.138 44.0137 101.306 43.9325C101.439 43.8681 101.576 43.7919 101.716 43.7039C101.859 43.6125 101.959 43.5448 102.015 43.5008H102.073V44.5521Z" fill="#333333"/>
<path d="M104.488 38.2849H103.375V37.2946H104.488V38.2849ZM104.425 44.9076H103.438V39.2346H104.425V44.9076Z" fill="#333333"/>
<path d="M111.319 44.9076H110.342V40.6465L107.271 44.9076H106.378V39.2346H107.355V43.4347L110.395 39.2346H111.319V44.9076ZM110.757 37C110.739 37.5011 110.575 37.8922 110.263 38.1732C109.955 38.4542 109.506 38.5947 108.914 38.5947C108.322 38.5947 107.871 38.4542 107.559 38.1732C107.251 37.8922 107.089 37.5011 107.071 37H107.969C107.972 37.3555 108.053 37.6128 108.21 37.772C108.371 37.9311 108.606 38.0107 108.914 38.0107C109.226 38.0107 109.46 37.9328 109.618 37.777C109.775 37.6213 109.856 37.3623 109.859 37H110.757Z" fill="#333333"/>
<path d="M118.176 44.9076H117.188V42.353H114.254V44.9076H113.266V39.2346H114.254V41.5302H117.188V39.2346H118.176V44.9076Z" fill="#333333"/>
<path d="M124.681 44.9076H123.699V44.3032C123.611 44.3608 123.492 44.442 123.342 44.547C123.195 44.6486 123.051 44.7298 122.911 44.7908C122.747 44.8686 122.558 44.933 122.344 44.9837C122.131 45.0379 121.88 45.065 121.593 45.065C121.065 45.065 120.617 44.8957 120.249 44.5571C119.882 44.2186 119.698 43.7869 119.698 43.2621C119.698 42.8321 119.793 42.485 119.982 42.2209C120.174 41.9534 120.447 41.7435 120.801 41.5912C121.158 41.4388 121.586 41.3355 122.087 41.2814C122.587 41.2272 123.125 41.1866 123.699 41.1595V41.0122C123.699 40.7955 123.659 40.616 123.578 40.4738C123.501 40.3316 123.389 40.2199 123.242 40.1386C123.102 40.0608 122.934 40.0083 122.738 39.9812C122.542 39.9541 122.337 39.9406 122.124 39.9406C121.865 39.9406 121.576 39.9744 121.257 40.0422C120.939 40.1065 120.61 40.2013 120.27 40.3266H120.218V39.3565C120.41 39.3057 120.689 39.2499 121.053 39.1889C121.417 39.128 121.775 39.0975 122.129 39.0975C122.542 39.0975 122.901 39.1314 123.205 39.1991C123.513 39.2634 123.779 39.3751 124.003 39.5343C124.224 39.69 124.392 39.8915 124.507 40.1386C124.623 40.3858 124.681 40.6922 124.681 41.0579V44.9076ZM123.699 43.5109V41.9314C123.398 41.9484 123.043 41.9738 122.633 42.0076C122.227 42.0415 121.905 42.0906 121.667 42.1549C121.383 42.2328 121.154 42.3547 120.979 42.5206C120.804 42.6831 120.717 42.9082 120.717 43.196C120.717 43.5211 120.818 43.7665 121.021 43.9325C121.224 44.095 121.534 44.1762 121.95 44.1762C122.297 44.1762 122.614 44.1119 122.901 43.9832C123.188 43.8512 123.454 43.6938 123.699 43.5109Z" fill="#333333"/>
<path d="M134.633 44.9076H133.646V40.0574H130.711V44.9076H129.724V39.2346H134.633V44.9076Z" fill="#333333"/>
<path d="M141.312 44.9076H140.325V40.0371H138.135C138.125 40.3181 138.114 40.589 138.104 40.8497C138.093 41.1104 138.083 41.3457 138.072 41.5556C138.048 42.121 138.007 42.573 137.951 42.9116C137.895 43.2468 137.822 43.5262 137.731 43.7496C137.647 43.9595 137.552 44.1305 137.447 44.2626C137.346 44.3912 137.236 44.508 137.117 44.613C136.998 44.7146 136.865 44.7908 136.718 44.8415C136.574 44.8923 136.417 44.9177 136.245 44.9177C136.186 44.9177 136.098 44.916 135.983 44.9126C135.871 44.9093 135.797 44.9076 135.762 44.9076V44.0747H135.815C135.843 44.0747 135.883 44.0764 135.935 44.0797C135.988 44.0831 136.032 44.0848 136.067 44.0848C136.151 44.0848 136.236 44.073 136.324 44.0493C136.415 44.0256 136.492 43.9815 136.555 43.9172C136.733 43.7479 136.877 43.4618 136.985 43.0589C137.094 42.656 137.166 42.0736 137.201 41.3118C137.215 41.0342 137.227 40.7058 137.237 40.3266C137.251 39.944 137.264 39.58 137.274 39.2346H141.312V44.9076Z" fill="#333333"/>
<path d="M147.817 44.9076H146.835V44.3032C146.747 44.3608 146.628 44.442 146.478 44.547C146.331 44.6486 146.187 44.7298 146.047 44.7908C145.883 44.8686 145.694 44.933 145.48 44.9837C145.267 45.0379 145.017 45.065 144.73 45.065C144.201 45.065 143.753 44.8957 143.385 44.5571C143.018 44.2186 142.834 43.7869 142.834 43.2621C142.834 42.8321 142.929 42.485 143.118 42.2209C143.31 41.9534 143.583 41.7435 143.937 41.5912C144.294 41.4388 144.723 41.3355 145.223 41.2814C145.724 41.2272 146.261 41.1866 146.835 41.1595V41.0122C146.835 40.7955 146.795 40.616 146.714 40.4738C146.637 40.3316 146.525 40.2199 146.378 40.1386C146.238 40.0608 146.07 40.0083 145.874 39.9812C145.678 39.9541 145.473 39.9406 145.26 39.9406C145.001 39.9406 144.712 39.9744 144.393 40.0422C144.075 40.1065 143.746 40.2013 143.406 40.3266H143.354V39.3565C143.546 39.3057 143.825 39.2499 144.189 39.1889C144.553 39.128 144.912 39.0975 145.265 39.0975C145.678 39.0975 146.037 39.1314 146.341 39.1991C146.649 39.2634 146.915 39.3751 147.139 39.5343C147.36 39.69 147.528 39.8915 147.643 40.1386C147.759 40.3858 147.817 40.6922 147.817 41.0579V44.9076ZM146.835 43.5109V41.9314C146.534 41.9484 146.179 41.9738 145.769 42.0076C145.363 42.0415 145.041 42.0906 144.803 42.1549C144.519 42.2328 144.29 42.3547 144.115 42.5206C143.94 42.6831 143.853 42.9082 143.853 43.196C143.853 43.5211 143.954 43.7665 144.157 43.9325C144.36 44.095 144.67 44.1762 145.087 44.1762C145.433 44.1762 145.75 44.1119 146.037 43.9832C146.324 43.8512 146.59 43.6938 146.835 43.5109Z" fill="#333333"/>
<path d="M154.028 40.0726H151.907V44.9076H150.92V40.0726H148.798V39.2346H154.028V40.0726Z" fill="#333333"/>
<path d="M162.538 41.9213C162.538 42.4258 162.472 42.8727 162.339 43.2621C162.206 43.648 162.029 43.9663 161.809 44.2169C161.592 44.4674 161.341 44.6587 161.058 44.7908C160.774 44.9228 160.477 44.9888 160.165 44.9888C159.931 44.9888 159.726 44.9499 159.551 44.872C159.38 44.7941 159.226 44.723 159.089 44.6587V47H158.112V44.6587C157.899 44.7603 157.722 44.8415 157.582 44.9025C157.446 44.96 157.23 44.9888 156.936 44.9888C156.261 44.9888 155.713 44.7332 155.293 44.2219C154.873 43.7107 154.663 42.9997 154.663 42.0889C154.663 41.6115 154.731 41.1866 154.868 40.8141C155.004 40.4383 155.183 40.1234 155.403 39.8695C155.617 39.6223 155.867 39.4344 156.154 39.3057C156.445 39.1737 156.733 39.1077 157.02 39.1077C157.23 39.1077 157.421 39.1398 157.593 39.2042C157.768 39.2651 157.941 39.3464 158.112 39.4479V37.0051H159.089V39.4479C159.25 39.3565 159.439 39.277 159.656 39.2092C159.873 39.1415 160.092 39.1077 160.312 39.1077C161.005 39.1077 161.55 39.3616 161.945 39.8695C162.341 40.374 162.538 41.0579 162.538 41.9213ZM161.525 42.0279C161.525 41.3812 161.406 40.87 161.168 40.4942C160.93 40.1183 160.573 39.9304 160.097 39.9304C159.905 39.9304 159.744 39.9457 159.614 39.9761C159.485 40.0066 159.31 40.0642 159.089 40.1488V43.9325C159.254 44.0069 159.39 44.0662 159.499 44.1102C159.611 44.1508 159.768 44.1712 159.971 44.1712C160.465 44.1712 160.846 43.9883 161.116 43.6227C161.389 43.2536 161.525 42.722 161.525 42.0279ZM158.112 43.9325V40.1488C157.976 40.0879 157.838 40.0371 157.698 39.9964C157.558 39.9524 157.402 39.9304 157.23 39.9304C156.758 39.9304 156.38 40.1048 156.096 40.4535C155.816 40.8023 155.676 41.3321 155.676 42.0432C155.676 42.7034 155.801 43.2231 156.049 43.6023C156.301 43.9815 156.663 44.1712 157.136 44.1712C157.321 44.1712 157.493 44.1475 157.65 44.1001C157.811 44.0493 157.965 43.9934 158.112 43.9325Z" fill="#333333"/>
<path d="M169.091 42.0736C169.091 42.998 168.846 43.7276 168.356 44.2626C167.866 44.7975 167.209 45.065 166.387 45.065C165.557 45.065 164.898 44.7975 164.408 44.2626C163.921 43.7276 163.678 42.998 163.678 42.0736C163.678 41.1493 163.921 40.4197 164.408 39.8847C164.898 39.3464 165.557 39.0772 166.387 39.0772C167.209 39.0772 167.866 39.3464 168.356 39.8847C168.846 40.4197 169.091 41.1493 169.091 42.0736ZM168.072 42.0736C168.072 41.3389 167.923 40.7938 167.626 40.4383C167.328 40.0794 166.915 39.8999 166.387 39.8999C165.851 39.8999 165.435 40.0794 165.137 40.4383C164.843 40.7938 164.696 41.3389 164.696 42.0736C164.696 42.7847 164.845 43.3247 165.143 43.6938C165.44 44.0594 165.855 44.2423 166.387 44.2423C166.912 44.2423 167.323 44.0611 167.621 43.6988C167.922 43.3332 168.072 42.7914 168.072 42.0736Z" fill="#333333"/>
<path d="M175.785 42.0025C175.785 42.463 175.717 42.8845 175.58 43.2671C175.444 43.6464 175.251 43.968 175.003 44.2321C174.772 44.4826 174.499 44.6773 174.184 44.8162C173.872 44.9516 173.541 45.0193 173.191 45.0193C172.887 45.0193 172.61 44.9871 172.362 44.9228C172.117 44.8585 171.866 44.7586 171.611 44.6232V47H170.624V39.2346H171.611V39.8288C171.873 39.6155 172.167 39.4378 172.493 39.2956C172.822 39.15 173.172 39.0772 173.543 39.0772C174.25 39.0772 174.8 39.3362 175.192 39.8542C175.587 40.3689 175.785 41.085 175.785 42.0025ZM174.766 42.0279C174.766 41.344 174.646 40.8327 174.404 40.4942C174.163 40.1556 173.792 39.9863 173.291 39.9863C173.007 39.9863 172.722 40.0455 172.435 40.164C172.148 40.2825 171.873 40.4383 171.611 40.6313V43.8461C171.891 43.968 172.131 44.051 172.33 44.095C172.533 44.139 172.762 44.161 173.018 44.161C173.568 44.161 173.996 43.9815 174.304 43.6227C174.612 43.2638 174.766 42.7322 174.766 42.0279Z" fill="#333333"/>
<path d="M182.868 44.9076H181.891V40.4281L180.431 43.3433H179.696L178.247 40.4281V44.9076H177.323V39.2346H178.515L180.111 42.4088L181.655 39.2346H182.868V44.9076Z" fill="#333333"/>
<path d="M189.367 44.9076H188.386V44.3032C188.298 44.3608 188.179 44.442 188.029 44.547C187.882 44.6486 187.738 44.7298 187.598 44.7908C187.433 44.8686 187.244 44.933 187.031 44.9837C186.817 45.0379 186.567 45.065 186.28 45.065C185.752 45.065 185.304 44.8957 184.936 44.5571C184.569 44.2186 184.385 43.7869 184.385 43.2621C184.385 42.8321 184.479 42.485 184.668 42.2209C184.861 41.9534 185.134 41.7435 185.487 41.5912C185.844 41.4388 186.273 41.3355 186.774 41.2814C187.274 41.2272 187.812 41.1866 188.386 41.1595V41.0122C188.386 40.7955 188.345 40.616 188.265 40.4738C188.188 40.3316 188.076 40.2199 187.929 40.1386C187.789 40.0608 187.621 40.0083 187.425 39.9812C187.229 39.9541 187.024 39.9406 186.81 39.9406C186.551 39.9406 186.263 39.9744 185.944 40.0422C185.626 40.1065 185.297 40.2013 184.957 40.3266H184.905V39.3565C185.097 39.3057 185.375 39.2499 185.739 39.1889C186.103 39.128 186.462 39.0975 186.816 39.0975C187.229 39.0975 187.588 39.1314 187.892 39.1991C188.2 39.2634 188.466 39.3751 188.69 39.5343C188.911 39.69 189.079 39.8915 189.194 40.1386C189.31 40.3858 189.367 40.6922 189.367 41.0579V44.9076ZM188.386 43.5109V41.9314C188.085 41.9484 187.729 41.9738 187.32 42.0076C186.914 42.0415 186.592 42.0906 186.354 42.1549C186.07 42.2328 185.841 42.3547 185.666 42.5206C185.491 42.6831 185.403 42.9082 185.403 43.196C185.403 43.5211 185.505 43.7665 185.708 43.9325C185.911 44.095 186.221 44.1762 186.637 44.1762C186.984 44.1762 187.3 44.1119 187.588 43.9832C187.875 43.8512 188.141 43.6938 188.386 43.5109Z" fill="#333333"/>
<path d="M200.372 46.2687H199.453V44.8923H195.043V46.2687H194.124V44.095H194.759C195.169 43.4415 195.473 42.6882 195.673 41.8349C195.876 40.9783 195.977 40.1116 195.977 39.2346H199.663V44.095H200.372V46.2687ZM198.676 44.095V40.0371H196.907C196.861 40.8869 196.726 41.6623 196.502 42.3631C196.278 43.064 196.021 43.6413 195.731 44.095H198.676Z" fill="#333333"/>
<path d="M206.467 44.9076H205.48V40.0371H203.291C203.281 40.3181 203.27 40.589 203.26 40.8497C203.249 41.1104 203.239 41.3457 203.228 41.5556C203.204 42.121 203.163 42.573 203.107 42.9116C203.051 43.2468 202.978 43.5262 202.887 43.7496C202.803 43.9595 202.708 44.1305 202.603 44.2626C202.502 44.3912 202.392 44.508 202.273 44.613C202.154 44.7146 202.021 44.7908 201.874 44.8415C201.73 44.8923 201.572 44.9177 201.401 44.9177C201.341 44.9177 201.254 44.916 201.138 44.9126C201.026 44.9093 200.953 44.9076 200.918 44.9076V44.0747H200.97C200.998 44.0747 201.039 44.0764 201.091 44.0797C201.144 44.0831 201.187 44.0848 201.222 44.0848C201.306 44.0848 201.392 44.073 201.48 44.0493C201.571 44.0256 201.648 43.9815 201.711 43.9172C201.889 43.7479 202.033 43.4618 202.141 43.0589C202.25 42.656 202.322 42.0736 202.357 41.3118C202.371 41.0342 202.383 40.7058 202.393 40.3266C202.407 39.944 202.42 39.58 202.43 39.2346H206.467V44.9076Z" fill="#333333"/>
<path d="M212.92 44.9076H211.933V42.6577H210.773L208.956 44.9076H207.796L209.77 42.5663C209.262 42.4308 208.891 42.2243 208.657 41.9467C208.422 41.6657 208.305 41.2983 208.305 40.8446C208.305 40.5433 208.375 40.2876 208.515 40.0777C208.655 39.8678 208.832 39.6968 209.045 39.5648C209.255 39.4361 209.497 39.3498 209.77 39.3057C210.043 39.2583 210.34 39.2346 210.662 39.2346H212.92V44.9076ZM211.933 41.906V39.9964H210.689C210.419 39.9964 210.225 40.0049 210.106 40.0218C209.987 40.0388 209.857 40.0845 209.717 40.159C209.581 40.2335 209.479 40.335 209.413 40.4637C209.35 40.589 209.318 40.7261 209.318 40.8751C209.318 41.0613 209.338 41.212 209.376 41.3271C209.418 41.4422 209.502 41.5505 209.628 41.6521C209.758 41.7503 209.915 41.818 210.101 41.8553C210.286 41.8891 210.493 41.906 210.72 41.906H211.933Z" fill="#333333"/>
<path d="M223.484 43.191C223.484 43.4652 223.426 43.709 223.31 43.9223C223.198 44.1356 223.043 44.3134 222.843 44.4556C222.619 44.6147 222.374 44.7298 222.108 44.8009C221.846 44.872 221.499 44.9076 221.069 44.9076H218.643V39.2346H220.911C221.349 39.2346 221.678 39.2499 221.898 39.2803C222.122 39.3074 222.332 39.3701 222.528 39.4683C222.749 39.58 222.91 39.7256 223.011 39.905C223.116 40.0845 223.169 40.2961 223.169 40.5399C223.169 40.8209 223.086 41.0647 222.922 41.2712C222.757 41.4777 222.546 41.6386 222.287 41.7537V41.8045C222.633 41.8857 222.918 42.0432 223.142 42.2768C223.37 42.507 223.484 42.8117 223.484 43.191ZM222.155 40.6872C222.155 40.5653 222.127 40.4552 222.071 40.357C222.019 40.2588 221.937 40.1827 221.825 40.1285C221.678 40.0574 221.511 40.0185 221.326 40.0117C221.144 40.0015 220.918 39.9964 220.648 39.9964H219.619V41.5505H220.853C221.112 41.5505 221.303 41.5421 221.426 41.5251C221.552 41.5048 221.678 41.4574 221.804 41.3829C221.937 41.3017 222.028 41.2069 222.077 41.0985C222.129 40.9868 222.155 40.8497 222.155 40.6872ZM222.465 43.196C222.465 43.0098 222.434 42.8592 222.371 42.744C222.308 42.6255 222.169 42.5172 221.956 42.419C221.823 42.358 221.679 42.3225 221.525 42.3123C221.371 42.2988 221.158 42.292 220.885 42.292H219.619V44.1458H220.554C220.946 44.1458 221.247 44.1339 221.457 44.1102C221.671 44.0831 221.854 44.0273 222.008 43.9426C222.162 43.858 222.276 43.7547 222.35 43.6328C222.427 43.5109 222.465 43.3653 222.465 43.196Z" fill="#333333"/>
<path d="M230.036 42.0736C230.036 42.998 229.791 43.7276 229.301 44.2626C228.811 44.7975 228.155 45.065 227.332 45.065C226.503 45.065 225.843 44.7975 225.353 44.2626C224.866 43.7276 224.623 42.998 224.623 42.0736C224.623 41.1493 224.866 40.4197 225.353 39.8847C225.843 39.3464 226.503 39.0772 227.332 39.0772C228.155 39.0772 228.811 39.3464 229.301 39.8847C229.791 40.4197 230.036 41.1493 230.036 42.0736ZM229.017 42.0736C229.017 41.3389 228.869 40.7938 228.571 40.4383C228.274 40.0794 227.861 39.8999 227.332 39.8999C226.797 39.8999 226.38 40.0794 226.083 40.4383C225.789 40.7938 225.642 41.3389 225.642 42.0736C225.642 42.7847 225.79 43.3247 226.088 43.6938C226.385 44.0594 226.8 44.2423 227.332 44.2423C227.857 44.2423 228.268 44.0611 228.566 43.6988C228.867 43.3332 229.017 42.7914 229.017 42.0736Z" fill="#333333"/>
<path d="M236.893 46.2687H235.974V44.8923H231.564V46.2687H230.645V44.095H231.28C231.69 43.4415 231.994 42.6882 232.194 41.8349C232.397 40.9783 232.498 40.1116 232.498 39.2346H236.184V44.095H236.893V46.2687ZM235.197 44.095V40.0371H233.428C233.382 40.8869 233.247 41.6623 233.023 42.3631C232.799 43.064 232.542 43.6413 232.252 44.095H235.197Z" fill="#333333"/>
<path d="M239.318 38.2849H238.205V37.2946H239.318V38.2849ZM239.255 44.9076H238.268V39.2346H239.255V44.9076Z" fill="#333333"/>
<path d="M243.162 38.2849H242.169V37.2946H243.162V38.2849ZM241.256 38.2849H240.264V37.2946H241.256V38.2849ZM242.206 44.9076H241.219V39.2346H242.206V44.9076Z" fill="#333333"/>
<path d="M249 43.191C249 43.4652 248.942 43.709 248.827 43.9223C248.715 44.1356 248.559 44.3134 248.359 44.4556C248.135 44.6147 247.89 44.7298 247.624 44.8009C247.362 44.872 247.015 44.9076 246.585 44.9076H244.159V39.2346H246.427C246.865 39.2346 247.194 39.2499 247.414 39.2803C247.638 39.3074 247.848 39.3701 248.044 39.4683C248.265 39.58 248.426 39.7256 248.527 39.905C248.632 40.0845 248.685 40.2961 248.685 40.5399C248.685 40.8209 248.603 41.0647 248.438 41.2712C248.274 41.4777 248.062 41.6386 247.803 41.7537V41.8045C248.149 41.8857 248.435 42.0432 248.659 42.2768C248.886 42.507 249 42.8117 249 43.191ZM247.672 40.6872C247.672 40.5653 247.644 40.4552 247.588 40.357C247.535 40.2588 247.453 40.1827 247.341 40.1285C247.194 40.0574 247.028 40.0185 246.842 40.0117C246.66 40.0015 246.434 39.9964 246.165 39.9964H245.136V41.5505H246.37C246.629 41.5505 246.819 41.5421 246.942 41.5251C247.068 41.5048 247.194 41.4574 247.32 41.3829C247.453 41.3017 247.544 41.2069 247.593 41.0985C247.645 40.9868 247.672 40.8497 247.672 40.6872ZM247.981 43.196C247.981 43.0098 247.95 42.8592 247.887 42.744C247.824 42.6255 247.686 42.5172 247.472 42.419C247.339 42.358 247.196 42.3225 247.042 42.3123C246.888 42.2988 246.674 42.292 246.401 42.292H245.136V44.1458H246.07C246.462 44.1458 246.763 44.1339 246.973 44.1102C247.187 44.0831 247.371 44.0273 247.525 43.9426C247.679 43.858 247.792 43.7547 247.866 43.6328C247.943 43.5109 247.981 43.3653 247.981 43.196Z" fill="#333333"/>
<defs>
<linearGradient id="paint0_linear_169_23" x1="46.1514" y1="23.8192" x2="5.14984" y2="24.8799" gradientUnits="userSpaceOnUse">
<stop offset="0.0489199" stop-color="#FF0066"/>
<stop offset="1" stop-color="#FFC000"/>
</linearGradient>
</defs>
</svg>
