<svg width="88" height="80" viewBox="0 0 88 80" fill="none" xmlns="http://www.w3.org/2000/svg">
<path d="M60.5288 53.3554C61.5902 53.154 62.6894 53.0473 63.8156 53.0473C65.2266 53.0473 66.5951 53.2148 67.9 53.5267V6.65283C67.9 5.77461 67.1164 5.06226 66.1501 5.06226H51.457V9.02084H60.5288V53.3554Z" fill="#5746AF"/>
<path d="M17.983 71.9709V9.02084H27.0553V5.06226H12.3617C11.3956 5.06226 10.6123 5.77461 10.6123 6.65283V75.4762C10.6123 76.3547 11.3956 77.0668 12.3617 77.0668H51.5254C50.1541 75.5884 49.0975 73.8618 48.4543 71.9709H17.983Z" fill="#5746AF"/>
<path d="M30.3097 10.2679H48.2024C48.6174 10.2679 48.9543 9.96186 48.9543 9.58441V2.8153C48.9543 2.43785 48.6174 2.13184 48.2024 2.13184H45.3719C44.9244 0.894372 43.645 0 42.1339 0H36.3777C34.8668 0 33.5875 0.894372 33.1397 2.13184H30.3094C29.894 2.13184 29.5576 2.43785 29.5576 2.8153V9.58441C29.5581 9.96186 29.8942 10.2679 30.3097 10.2679Z" fill="#5746AF"/>
<path d="M23.4053 17.3269V20.9677C23.4053 21.2819 23.6853 21.5366 24.0309 21.5366H28.0353C28.3809 21.5366 28.6609 21.2819 28.6609 20.9677V17.3269C28.6609 17.0127 28.3809 16.7581 28.0353 16.7581H24.0309C23.6856 16.7581 23.4053 17.0127 23.4053 17.3269Z" fill="#5746AF"/>
<path d="M55.1065 17.3269C55.1065 17.0127 54.8264 16.7581 54.4808 16.7581H34.3757C34.0301 16.7581 33.75 17.0127 33.75 17.3269V20.9677C33.75 21.2819 34.0301 21.5366 34.3757 21.5366H54.4808C54.8264 21.5366 55.1065 21.2819 55.1065 20.9677V17.3269Z" fill="#5746AF"/>
<path d="M28.6609 28.7029C28.6609 28.3887 28.3809 28.134 28.0353 28.134H24.0309C23.6853 28.134 23.4053 28.3887 23.4053 28.7029V32.3437C23.4053 32.6579 23.6853 32.9125 24.0309 32.9125H28.0353C28.3809 32.9125 28.6609 32.6579 28.6609 32.3437V28.7029Z" fill="#5746AF"/>
<path d="M55.1065 28.7029C55.1065 28.3887 54.8264 28.134 54.4808 28.134H34.3757C34.0301 28.134 33.75 28.3887 33.75 28.7029V32.3437C33.75 32.6579 34.0301 32.9125 34.3757 32.9125H54.4808C54.8264 32.9125 55.1065 32.6579 55.1065 32.3437V28.7029Z" fill="#5746AF"/>
<path d="M28.6609 40.0786C28.6609 39.7644 28.3809 39.5098 28.0353 39.5098H24.0309C23.6853 39.5098 23.4053 39.7644 23.4053 40.0786V43.7194C23.4053 44.0336 23.6853 44.2883 24.0309 44.2883H28.0353C28.3809 44.2883 28.6609 44.0336 28.6609 43.7194V40.0786Z" fill="#5746AF"/>
<path d="M55.1065 40.0786C55.1065 39.7644 54.8264 39.5098 54.4808 39.5098H34.3757C34.0301 39.5098 33.75 39.7644 33.75 40.0786V43.7194C33.75 44.0336 34.0301 44.2883 34.3757 44.2883H54.4808C54.8264 44.2883 55.1065 44.0336 55.1065 43.7194V40.0786Z" fill="#5746AF"/>
<path d="M28.0353 50.8857H24.0309C23.6853 50.8857 23.4053 51.1404 23.4053 51.4546V55.0954C23.4053 55.4096 23.6853 55.6642 24.0309 55.6642H28.0353C28.3809 55.6642 28.6609 55.4096 28.6609 55.0954V51.4546C28.6609 51.1404 28.3809 50.8857 28.0353 50.8857Z" fill="#5746AF"/>
<path d="M54.4808 50.8857H34.3757C34.0301 50.8857 33.75 51.1404 33.75 51.4546V55.0954C33.75 55.4096 34.0301 55.6642 34.3757 55.6642H54.4808C54.8923 55.6642 55.1065 55.3084 55.1065 55.0954V51.4546C55.1065 51.1404 54.8262 50.8857 54.4808 50.8857Z" fill="#5746AF"/>
<path d="M63.8158 55.3223C56.32 55.3223 50.2432 60.8466 50.2432 67.661C50.2432 74.4756 56.32 79.9997 63.8158 79.9997C71.3121 79.9997 77.3884 74.4756 77.3884 67.661C77.3886 60.8468 71.3121 55.3223 63.8158 55.3223ZM70.1486 66.0252L63.8949 71.7104C63.5285 72.0434 63.048 72.2102 62.5677 72.2102C62.0874 72.2102 61.6069 72.0437 61.2405 71.7106L57.4835 68.2953C56.7504 67.6289 56.7504 66.5484 57.4832 65.882C58.2165 65.2156 59.4045 65.2156 60.1378 65.882L62.5674 68.0908L67.494 63.6121C68.227 62.9457 69.4156 62.9457 70.1483 63.6121C70.8816 64.2783 70.8816 65.3588 70.1486 66.0252Z" fill="#5746AF"/>
</svg>
