<svg width="80" height="80" viewBox="0 0 80 80" fill="none" xmlns="http://www.w3.org/2000/svg">
<g clip-path="url(#clip0_133_314)">
<path d="M67.6601 69.5795C67.6601 70.6331 66.806 71.4876 65.752 71.4876H62.688H56.3275H10.0666C6.47174 71.4876 3.54738 68.5628 3.54738 64.9683V57.8114C3.54738 54.2169 6.47174 51.2922 10.0666 51.2922H56.3275H62.688H65.752C66.806 51.2922 67.6601 52.1466 67.6601 53.2003C67.6601 54.2539 66.806 55.1084 65.752 55.1084H64.5961V67.6714H65.752C66.806 67.6714 67.6601 68.5258 67.6601 69.5795ZM75.8325 46.91C75.8325 47.9637 74.9785 48.8181 73.9244 48.8181H71.0546H64.4999H26.1214C22.7784 48.8181 20.059 46.0987 20.059 42.7561V37.6626C20.059 34.32 22.7784 31.6005 26.1214 31.6005H64.4995H71.0543H73.924C74.9781 31.6005 75.8321 32.455 75.8321 33.5086C75.8321 34.5623 74.9781 35.4167 73.924 35.4167H72.9624V45.0019H73.924C74.9785 45.0019 75.8325 45.856 75.8325 46.91ZM26.1214 45.0019H64.4995H69.1461V35.4164H64.4995H26.1214C24.8831 35.4164 23.8752 36.4238 23.8752 37.6622V42.7557C23.8756 43.9944 24.8831 45.0019 26.1214 45.0019ZM78.0929 8.51245H61.7484H18.2539H1.90908C0.855045 8.51245 0.000976562 9.3669 0.000976562 10.4206C0.000976562 11.4742 0.855045 12.3287 1.90908 12.3287H3.54738V28.646C2.67385 29.2524 2.09951 30.2614 2.09951 31.4032C2.09951 33.2537 3.60501 34.7592 5.45549 34.7592C7.30597 34.7592 8.81146 33.2537 8.81146 31.4032C8.81146 30.2614 8.23712 29.2528 7.36359 28.646V12.3287H16.3458V27.3725C16.3458 28.4262 17.1999 29.2807 18.2539 29.2807H61.7484C62.8025 29.2807 63.6565 28.4262 63.6565 27.3725V12.3287H78.0929C79.1469 12.3287 80.001 11.4742 80.001 10.4206C80.001 9.3669 79.1469 8.51245 78.0929 8.51245Z" fill="#FFBA03"/>
</g>
<defs>
<clipPath id="clip0_133_314">
<rect width="80" height="80" fill="white" transform="translate(0.000976562)"/>
</clipPath>
</defs>
</svg>
