<svg width="80" height="80" viewBox="0 0 80 80" fill="none" xmlns="http://www.w3.org/2000/svg">
<path d="M28.2732 2.91139V18.0628C28.2732 20.2583 26.4935 22.0383 24.2977 22.0383H8.78302C8.53192 22.0383 8.33927 21.8167 8.37052 21.5675C8.63099 19.502 9.57067 17.5664 11.0582 16.0812L21.9102 5.2292C23.4977 3.63936 25.596 2.67576 27.8191 2.49748C28.0627 2.47795 28.2732 2.6667 28.2732 2.91139Z" fill="#FF0066"/>
<path d="M24.2981 24.5049H8.78312C7.9564 24.5049 7.16874 24.1491 6.62171 23.5289C6.07405 22.9077 5.81937 22.0803 5.92312 21.2585C6.25202 18.6496 7.45687 16.1907 9.3153 14.3352L20.1659 3.48457C22.1594 1.48847 24.8076 0.264099 27.6222 0.0383172C29.3225 -0.0959015 30.7408 1.24597 30.7408 2.91144V18.0628C30.7403 21.6147 27.8505 24.5049 24.2981 24.5049ZM11.5323 19.5708H24.2981C25.1298 19.5708 25.8066 18.8944 25.8066 18.0627V5.50863C25.01 5.85425 24.2787 6.34894 23.6562 6.97238L12.803 17.8257C12.2895 18.338 11.8614 18.9294 11.5323 19.5708Z" fill="#FF0066"/>
<path d="M63.8307 80H16.1711C10.4685 80 5.8291 75.3605 5.8291 69.6581V22.7475C5.8291 22.462 5.8402 22.1631 5.86238 21.8586C6.07676 19.0141 7.3027 16.3442 9.31473 14.3353L20.1654 3.48453C22.3088 1.33812 25.161 0.102344 28.195 0.00609375C28.3299 0.00265625 28.4547 0 28.5766 0H63.8307C69.5333 0 74.1729 4.63953 74.1729 10.3419V47.4017C74.1729 48.7641 73.0682 49.8688 71.7058 49.8688C70.3435 49.8688 69.2388 48.7641 69.2388 47.4017V10.3419C69.2388 7.36 66.8127 4.93406 63.8308 4.93406H28.5766C28.4979 4.93406 28.4172 4.93625 28.3385 4.93828C26.5775 4.99422 24.91 5.71656 23.656 6.97234L12.8027 17.8256C11.6252 19.0014 10.9082 20.5628 10.7832 22.2234C10.77 22.4025 10.7632 22.5809 10.7632 22.7475V69.6581C10.7632 72.64 13.1889 75.0659 16.171 75.0659H63.8307C66.8125 75.0659 69.2386 72.64 69.2386 69.6581V62.2034C69.2386 60.8411 70.3433 59.7364 71.7057 59.7364C73.068 59.7364 74.1727 60.8411 74.1727 62.2034V69.6581C74.1729 75.3606 69.5335 80 63.8307 80Z" fill="#FF0066"/>
<path d="M25.3604 57.1471C25.3604 57.0257 25.4008 56.8645 25.4413 56.7023L32.9661 32.024C33.4111 30.6079 35.2319 29.9204 37.0929 29.9204C38.9538 29.9204 40.7744 30.6079 41.2196 32.024L48.7847 56.7023C48.8252 56.8642 48.8657 57.0257 48.8657 57.1471C48.8657 58.6442 46.5597 59.7365 44.8202 59.7365C43.8086 59.7365 42.9997 59.4126 42.7571 58.5632L41.3818 53.5062H32.845L31.4697 58.5632C31.2269 59.4126 30.4179 59.7365 29.4066 59.7365C27.666 59.7365 25.3604 58.6442 25.3604 57.1471ZM40.0457 48.651L37.0924 37.809L34.1391 48.651H40.0457Z" fill="#FF0066"/>
<path d="M49.7905 37.4954V34.6235H46.9187C46.0898 34.6235 45.5273 33.8833 45.5273 32.7586C45.5273 31.6929 46.0895 30.864 46.9187 30.864H49.7905V28.0219C49.7905 27.3111 50.6192 26.6008 51.6852 26.6008C52.8102 26.6008 53.5503 27.3111 53.5503 28.0219V30.864H56.3923C57.1028 30.864 57.8134 31.6927 57.8134 32.7586C57.8134 33.8833 57.103 34.6235 56.3923 34.6235H53.5503V37.4954C53.5503 38.3241 52.8102 38.8865 51.6852 38.8865C50.6194 38.8866 49.7905 38.3243 49.7905 37.4954Z" fill="#FF0066"/>
</svg>
