<svg width="80" height="80" viewBox="0 0 80 80" fill="none" xmlns="http://www.w3.org/2000/svg">
<g clip-path="url(#clip0_133_303)">
<path d="M73.4475 38.9602H60.54V43.7584H73.4475V38.9602Z" fill="#4F9801"/>
<path d="M7.48926 1.18042V8.72513L10.7851 7.70827V4.47373H76.7023V46.4947H24.2471L24.0759 49.7931H80.0008V1.18042H7.48926Z" fill="#4F9801"/>
<path d="M12.7317 28.9908C18.1248 28.9908 22.4967 24.6189 22.4967 19.2259C22.4967 13.8329 18.1248 9.46094 12.7317 9.46094C7.33871 9.46094 2.9668 13.8329 2.9668 19.2259C2.9668 24.6189 7.33871 28.9908 12.7317 28.9908Z" fill="#4F9801"/>
<path d="M21.0255 74.3561V56.9775V55.3372V53.1144H21.6412L22.5482 35.4726L39.3878 26.7475L38.6213 25.2708L40.328 24.0904C40.6985 25.7843 41.3679 27.3607 42.3438 28.7301C42.5355 29.0035 42.7399 29.2718 42.9545 29.5298C45.2795 32.3173 48.7644 34.1032 52.6709 34.1236C52.6862 34.1236 52.7015 34.1262 52.7169 34.1262C52.7194 34.1262 52.7271 34.1262 52.7322 34.1262C52.7373 34.1262 52.7424 34.1262 52.7475 34.1262C56.6796 34.1262 60.2028 32.3351 62.5431 29.5298C62.7526 29.2743 62.957 29.0035 63.1512 28.7301C64.6228 26.6504 65.4915 24.1159 65.4915 21.3796C65.4915 18.6458 64.6228 16.1088 63.1512 14.0316C62.957 13.7582 62.7578 13.49 62.5431 13.2319C60.2028 10.4241 56.6796 8.63306 52.7475 8.63306C52.7424 8.63306 52.7373 8.63306 52.7322 8.63306C52.7271 8.63306 52.7194 8.63306 52.7169 8.63306C52.7015 8.63306 52.6862 8.63561 52.6709 8.63561C48.7695 8.65605 45.2744 10.4445 42.9545 13.2319C42.7399 13.49 42.5355 13.7582 42.3438 14.0316C40.8697 16.1062 40.001 18.6458 40.001 21.3796C40.001 21.9136 40.0572 22.4297 40.1236 22.9458L40.0265 22.8001L38.049 24.1619L37.1752 22.4757L21.7818 30.4522H16.2887L12.5661 34.77L8.96623 30.4522L1.0485 31.9315L0.545177 49.4736H3.8998L4.07865 53.117H4.58963V55.3397V56.98V74.3612H3.91769L0.000976562 75.2094V78.8221H3.33516L7.22888 78.1834L7.2672 78.8221H11.5748V74.7955V74.3612V56.98H14.0301V74.3612V74.7955V78.8221H18.3454L18.3812 78.1834L22.2723 78.8221H25.6091V75.2094L21.6898 74.3561H21.0255ZM56.3781 32.5038C57.5687 31.3694 58.5574 29.6985 59.2319 27.6877C60.1492 28.0275 60.977 28.4389 61.6872 28.9039C60.3025 30.5518 58.4757 31.8191 56.3781 32.5038ZM62.3081 28.1042C61.5058 27.5651 60.5656 27.0924 59.5309 26.7092C59.9039 25.3551 60.1338 23.8783 60.2028 22.3224H64.4082C64.2396 24.4634 63.4808 26.4435 62.3081 28.1042ZM64.444 21.2749H60.2207C60.2105 19.4123 59.9652 17.6469 59.5283 16.0551C60.5631 15.6693 61.4982 15.2018 62.3055 14.6627C63.629 16.538 64.421 18.817 64.444 21.2749ZM61.6923 13.863C60.9821 14.3306 60.1517 14.7393 59.2319 15.0791C58.5498 13.0684 57.5712 11.3975 56.3781 10.2631C58.4757 10.9478 60.3076 12.2125 61.6923 13.863ZM53.2713 9.72912C55.3919 10.0562 57.2238 12.2559 58.2611 15.4011C56.7613 15.8456 55.0725 16.1139 53.2713 16.1573V9.72912ZM53.2713 17.2023C55.167 17.1589 56.9529 16.8676 58.5498 16.3847C58.9381 17.8717 59.1655 19.5247 59.1783 21.2749H53.2713V17.2023ZM53.2713 22.3224H59.1604C59.0991 23.7634 58.887 25.1328 58.5574 26.3822C56.9606 25.8993 55.1722 25.6055 53.2738 25.5595L53.2713 22.3224ZM53.2713 26.607C55.0725 26.6504 56.7639 26.9187 58.2662 27.3633C57.2238 30.5109 55.3919 32.7082 53.2713 33.0352V26.607ZM41.0868 22.3224H45.2284C45.2948 23.886 45.535 25.373 45.9054 26.7322C44.8937 27.1129 43.979 27.5753 43.1921 28.1042C42.0117 26.4435 41.2529 24.4634 41.0868 22.3224ZM43.8053 28.9013C44.5002 28.444 45.3127 28.0429 46.2043 27.7056C46.8789 29.6882 47.8523 31.3387 49.025 32.4706C46.9657 31.7807 45.1722 30.5263 43.8053 28.9013ZM52.2212 33.0454C50.0751 32.7516 48.2253 30.5493 47.1701 27.3811C48.6826 26.9238 50.3995 26.6504 52.2212 26.607V33.0454ZM52.2212 25.5595C50.2999 25.6055 48.4885 25.9044 46.8814 26.3975C46.5467 25.1456 46.3372 23.771 46.2733 22.3198H52.2212V25.5595ZM52.2212 21.2749H46.2529C46.2631 19.5171 46.4931 17.8589 46.8865 16.3694C48.4936 16.8625 50.305 17.1614 52.2212 17.2049V21.2749ZM52.2212 9.7189V16.1573C50.3995 16.1113 48.6826 15.838 47.1727 15.3857C48.2279 12.2176 50.0827 10.0153 52.2212 9.7189ZM49.025 10.2963C47.8523 11.423 46.8789 13.0761 46.2043 15.0587C45.305 14.724 44.4977 14.3203 43.8053 13.863C45.1722 12.2381 46.9657 10.9861 49.025 10.2963ZM43.1844 14.6601C43.979 15.1916 44.8911 15.654 45.9003 16.0321C45.4634 17.6315 45.213 19.4046 45.2079 21.2723H41.0459C41.0689 18.817 41.8635 16.538 43.1844 14.6601Z" fill="#4F9801"/>
</g>
<defs>
<clipPath id="clip0_133_303">
<rect width="80" height="80" fill="white" transform="translate(0.000976562)"/>
</clipPath>
</defs>
</svg>
