<svg width="80" height="80" viewBox="0 0 80 80" fill="none" xmlns="http://www.w3.org/2000/svg">
<g clip-path="url(#clip0_133_320)">
<path d="M11.1531 66.9832C10.4067 66.9832 9.79699 66.3756 9.79699 65.6274V15.7249C9.79699 14.9768 10.4067 14.3694 11.1531 14.3694H45.8293C46.5774 14.3694 47.1845 14.977 47.1845 15.7249V40.9421C48.8707 40.2007 50.6715 39.6832 52.5451 39.3901V15.7249C52.5451 12.0217 49.5323 9.00909 45.8293 9.00909H18.7987V6.71578C18.7987 5.96677 19.4084 5.36063 20.1538 5.36063H54.83C55.5765 5.36063 56.1862 5.96693 56.1862 6.71578V39.118C58.0104 39.1388 59.7987 39.4085 61.5466 39.8843V6.71578C61.5468 3.01185 58.534 0 54.83 0H20.1538C16.4499 0 13.438 3.01185 13.438 6.71578V9.00893H11.1531C7.45176 9.00893 4.43652 12.0216 4.43652 15.7247V65.6272C4.43652 69.3307 7.45176 72.3433 11.1531 72.3433H37.4141C36.3847 70.6892 35.5691 68.894 35.0087 66.983H11.1531V66.9832Z" fill="#D52121"/>
<path d="M19.3717 28.3677H33.3175C34.7992 28.3677 35.9977 27.169 35.9977 25.6872C35.9977 24.2063 34.7992 23.0071 33.3175 23.0071H19.3717C17.8926 23.0071 16.6914 24.2065 16.6914 25.6872C16.6914 27.169 17.8926 28.3677 19.3717 28.3677Z" fill="#D52121"/>
<path d="M37.6102 33.7363H19.3717C17.8926 33.7363 16.6914 34.9347 16.6914 36.4165C16.6914 37.8977 17.8926 39.097 19.3717 39.097H37.6102C39.0895 39.097 40.2905 37.8976 40.2905 36.4165C40.2905 34.9346 39.0895 33.7363 37.6102 33.7363Z" fill="#D52121"/>
<path d="M40.0283 46.028C39.6044 45.1093 38.688 44.4624 37.6102 44.4624H19.3717C17.8926 44.4624 16.6914 45.6611 16.6914 47.1429C16.6914 48.6244 17.8926 49.8234 19.3717 49.8234H37.1804C37.992 48.4547 38.9479 47.1824 40.0283 46.028Z" fill="#D52121"/>
<path d="M16.6914 57.869C16.6914 59.3509 17.8926 60.5492 19.3717 60.5492H34.1451C34.1736 58.6967 34.4434 56.9031 34.9089 55.1892H19.3717C17.8926 55.1892 16.6914 56.3876 16.6914 57.869Z" fill="#D52121"/>
<path d="M70.3623 57.2074C70.6639 58.3874 70.8414 59.6202 70.8414 60.8926C70.8414 69.1211 64.1458 75.8172 55.9163 75.8172C47.6845 75.8172 40.9887 69.1213 40.9887 60.8926C40.9887 52.66 47.6845 45.9653 55.9163 45.9653C58.0129 45.9653 60.0079 46.405 61.8213 47.1873L64.0411 43.6225C61.5701 42.4547 58.8245 41.782 55.9163 41.782C45.3786 41.782 36.8066 50.3541 36.8066 60.8928C36.8066 71.428 45.3786 80.0001 55.9163 80.0001C66.4517 80.0001 75.0243 71.428 75.0243 60.8928C75.0243 57.9638 74.341 55.1974 73.1605 52.7153L70.3623 57.2074Z" fill="#D52121"/>
<path d="M73.9219 39.6205C73.3488 39.2643 72.7124 39.0935 72.0817 39.0935C70.9201 39.0935 69.7807 39.6747 69.1217 40.735L55.2645 63.0043L50.6208 56.3824C49.9433 55.4168 48.8621 54.9005 47.763 54.9005C47.072 54.9005 46.3759 55.1052 45.7653 55.5322C44.1923 56.6362 43.8078 58.8085 44.9151 60.3846L52.5817 71.3206C53.236 72.2519 54.3012 72.804 55.4371 72.804C55.4689 72.804 55.5 72.804 55.5317 72.804C56.7019 72.7706 57.7772 72.155 58.3954 71.1631L75.0367 44.4203C76.0551 42.785 75.5551 40.6356 73.9219 39.6205Z" fill="#D52121"/>
</g>
<defs>
<clipPath id="clip0_133_320">
<rect width="80" height="80" fill="white" transform="translate(0.000976562)"/>
</clipPath>
</defs>
</svg>
